<svg id="Group_18" data-name="Group 18" xmlns="http://www.w3.org/2000/svg" width="113.301" height="21.968" viewBox="0 0 113.301 21.968">
  <defs>
    <style>
      .cls-1 {
        fill: #fff;
      }
    </style>
  </defs>
  <g id="Group_15" data-name="Group 15" transform="translate(12.039 15.488)">
    <path id="Path_7" data-name="Path 7" class="cls-1" d="M38.186,42.26l.081.6A7.9,7.9,0,0,0,37,42.788h-2.69c-.355,0-.436.1-.436.528V44.4c0,.425.081.528.436.528h2.672c1.052,0,1.426.242,1.426,1.253v1.3c0,1.012-.374,1.253-1.426,1.253H32.978l-.081-.6a7.9,7.9,0,0,0,1.264.07h2.782c.356,0,.436-.1.436-.528V46.416c0-.425-.081-.528-.436-.528H34.276c-1.052,0-1.426-.242-1.426-1.253V43.513c0-1.012.374-1.253,1.426-1.253Z" transform="translate(-32.85 -42.256)"/>
    <path id="Path_8" data-name="Path 8" class="cls-1" d="M82.189,48.726a3.137,3.137,0,0,0-.356-1.052l-.443-.931H77.93L77.4,47.835a1.974,1.974,0,0,0-.282.891h-.85a3.284,3.284,0,0,0,.454-.7l2.58-5.373a1.421,1.421,0,0,0-.334-.4h1.3l2.6,5.31a5.922,5.922,0,0,0,.667,1.162H82.189Zm-2.547-5.582-1.477,3.075h2.983Z" transform="translate(-60.357 -42.25)"/>
    <path id="Path_9" data-name="Path 9" class="cls-1" d="M129.576,42.26l.081.6a7.894,7.894,0,0,0-1.264-.07h-2.771v2.448h2.316a9.753,9.753,0,0,0,1.327-.07v.663a9.662,9.662,0,0,0-1.327-.07h-2.316v1.961a3.953,3.953,0,0,0,.092,1.012H124.5a3.952,3.952,0,0,0,.092-1.012V43.272a3.952,3.952,0,0,0-.092-1.012h5.076Z" transform="translate(-90.911 -42.256)"/>
    <path id="Path_10" data-name="Path 10" class="cls-1" d="M171.911,42.26l.051.6a7.9,7.9,0,0,0-1.264-.07h-2.642v2.448h2.4a9.707,9.707,0,0,0,1.327-.07v.663a9.662,9.662,0,0,0-1.327-.07h-2.4v2.448h2.639a7.856,7.856,0,0,0,1.264-.07l-.051.6H166.93a3.952,3.952,0,0,0,.092-1.012V43.272a3.793,3.793,0,0,0-.092-1.012h4.981Z" transform="translate(-117.791 -42.256)"/>
    <path id="Path_11" data-name="Path 11" class="cls-1" d="M209.916,42.784a6.783,6.783,0,0,0-1.206.1l.1-.627h5.219l.1.627a6.736,6.736,0,0,0-1.2-.1h-.993v4.937a3.951,3.951,0,0,0,.092,1.012h-1.213a3.954,3.954,0,0,0,.092-1.012V42.784Z" transform="translate(-144.259 -42.256)"/>
    <path id="Path_12" data-name="Path 12" class="cls-1" d="M255.912,42.726a1.787,1.787,0,0,0,.2-.476H257a6.973,6.973,0,0,0-.872,1.114l-1.781,2.672v1.679a3.793,3.793,0,0,0,.092,1.012h-1.213a3.952,3.952,0,0,0,.092-1.012V46.047L251.9,43.995c-.315-.443-1.052-1.517-1.235-1.741h1.466a2.3,2.3,0,0,0,.5,1.034l1.5,2.166Z" transform="translate(-170.834 -42.25)"/>
  </g>
  <g id="Group_16" data-name="Group 16">
    <path id="Path_13" data-name="Path 13" class="cls-1" d="M9.507,3.573H5.9c-.792,0-.979-.07-.979-.506V2.419c0-.414.187-.506.979-.506h4.735a4.973,4.973,0,0,1,2.063.377L12.263,0H2.815A2.5,2.5,0,0,0,0,2.741V5.325C0,7.257.788,7.832,2.815,7.832H6.963c.792,0,.96.088.96.506v.8c0,.432-.169.509-.96.509H2.045a4.311,4.311,0,0,1-2-.436l.44,2.349H9.657c2.437,0,3.192-1.012,3.192-2.837V5.9C12.846,4.226,11.676,3.573,9.507,3.573Z" transform="translate(0 0.004)"/>
    <path id="Path_14" data-name="Path 14" class="cls-1" d="M51.519,0H40.59a2.658,2.658,0,0,1,.542,1.983V9.569a3.548,3.548,0,0,1-.418,1.986h5.923a3.548,3.548,0,0,1-.418-1.986V7.44h5.3c1.983,0,3.379-.473,3.379-2.818v-1.8C54.9.469,53.5,0,51.519,0ZM49.811,4.53c0,.817-.191,1.015-.92,1H46.223V1.913h2.668c.729-.022.92.183.92.993Z" transform="translate(-25.714 0.004)"/>
    <path id="Path_15" data-name="Path 15" class="cls-1" d="M97.669,0h-7.63C87.866,0,86.66.9,86.66,3.4V8.165c0,2.492,1.209,3.394,3.379,3.394h7.63c2.166,0,3.379-.9,3.379-3.394V3.4C101.048.9,99.839,0,97.669,0ZM95.962,8.906c0,.557-.334.74-1,.74h-2.21c-.667,0-1-.183-1-.74V2.653c0-.557.33-.74,1-.74h2.21c.667,0,1,.183,1,.74Z" transform="translate(-54.9 0.004)"/>
    <path id="Path_16" data-name="Path 16" class="cls-1" d="M143.847,6.535c1.088-.07,2.045-.161,2.045-1.862V2.547C145.892.612,144.764,0,142.429,0H131.46A2.658,2.658,0,0,1,132,1.983V9.569a3.51,3.51,0,0,1-.421,1.986h5.926a3.554,3.554,0,0,1-.414-1.986V6.535h1.565l2.419,5.021h5.692a7.961,7.961,0,0,1-1.107-1.77Zm-3.042-2.562c0,.557-.191.649-.836.649h-2.877V1.913h2.877c.649,0,.836.088.836.649Z" transform="translate(-83.281 0.004)"/>
    <path id="Path_17" data-name="Path 17" class="cls-1" d="M177.044,0l-.414,2.382a3.332,3.332,0,0,1,1.895-.465h2.316V9.573a3.554,3.554,0,0,1-.414,1.986h5.923a3.548,3.548,0,0,1-.418-1.986V1.913h2.32a3.332,3.332,0,0,1,1.895.465L189.721,0Z" transform="translate(-111.896 0.004)"/>
    <path id="Path_18" data-name="Path 18" class="cls-1" d="M223.682,9.642V6.535h3.628a7.7,7.7,0,0,1,2.294.308V4.314a7.7,7.7,0,0,1-2.294.308h-3.628V1.913h4.149a7.736,7.736,0,0,1,2.313.3L229.726,0H218.17a3.5,3.5,0,0,1,.418,1.983V9.569a3.516,3.516,0,0,1-.418,1.986h11.768l.458-2.221a7.494,7.494,0,0,1-2.294.3h-4.42Z" transform="translate(-138.212 0.004)"/>
    <path id="Path_19" data-name="Path 19" class="cls-1" d="M271.82,11.553a6.522,6.522,0,0,1-1.69-1.591L265.813,4.9l3.544-3.163A14.251,14.251,0,0,1,271.714-.01h-4.152a2.645,2.645,0,0,1-1.041,1.517l-2.085,1.84L262.79,1.361a1.95,1.95,0,0,1-.48-1.371H254.8a5.936,5.936,0,0,1,1.858,1.587l4.3,4.911L257.2,9.83a14.506,14.506,0,0,1-2.21,1.715h3.94c.084-.491.4-.869,1.085-1.481l2.272-2.023,1.462,1.7c.667.777.792.916.77,1.8h7.3Z" transform="translate(-161.418 0.01)"/>
  </g>
  <g id="Group_17" data-name="Group 17" transform="translate(111.073 0.055)">
    <path id="Path_20" data-name="Path 20" class="cls-1" d="M303.07.14h.949V.389H303.7v.762h-.311V.389h-.319Z" transform="translate(-303.07 -0.14)"/>
    <path id="Path_21" data-name="Path 21" class="cls-1" d="M306.044.14h.41l.158.616.158-.616h.41V1.152h-.257V.378l-.2.773h-.231l-.2-.773v.773h-.257V.14Z" transform="translate(-304.951 -0.14)"/>
  </g>
</svg>
