<svg xmlns="http://www.w3.org/2000/svg" width="160.916" height="108.093" viewBox="0 0 160.916 108.093">
  <g id="step_3" data-name="step 3" transform="translate(-986.122 -421.208)">
    <rect id="Rectangle_4" data-name="Rectangle 4" width="160.916" height="32.484" transform="translate(986.122 459.013)"/>
    <rect id="Rectangle_5" data-name="Rectangle 5" width="160.916" height="32.484" transform="translate(986.122 496.817)"/>
    <g id="Group_3" data-name="Group 3">
      <path id="Path_77" data-name="Path 77" d="M1132.079,480.953h-2.524l-2.882,2.883-2.883-2.883h-2.524a2.883,2.883,0,0,1-2.882-2.883h0V467.258h16.578V478.07a2.882,2.882,0,0,1-2.881,2.883Z" fill="none" stroke="#5d5d5d" stroke-miterlimit="10" stroke-width="1.539"/>
      <g id="Group_43" data-name="Group 43">
        <line id="Line_13" data-name="Line 13" x2="9.849" transform="translate(1121.811 470.622)" fill="none" stroke="#5d5d5d" stroke-miterlimit="10" stroke-width="1.539"/>
        <line id="Line_14" data-name="Line 14" x2="9.849" transform="translate(1121.811 473.7)" fill="none" stroke="#5d5d5d" stroke-miterlimit="10" stroke-width="1.539"/>
        <line id="Line_15" data-name="Line 15" x2="7.387" transform="translate(1121.811 476.778)" fill="none" stroke="#5d5d5d" stroke-miterlimit="10" stroke-width="1.539"/>
      </g>
    </g>
    <g id="Group_4" data-name="Group 4">
      <path id="Path_77-2" data-name="Path 77" d="M1046.223,518.465H1043.7l-2.882,2.883-2.883-2.883h-2.524a2.883,2.883,0,0,1-2.882-2.883h0V504.77h16.578v10.812a2.883,2.883,0,0,1-2.882,2.883Z" fill="none" stroke="#d7de3b" stroke-miterlimit="10" stroke-width="1.539"/>
      <g id="Group_43-2" data-name="Group 43">
        <line id="Line_13-2" data-name="Line 13" x2="9.849" transform="translate(1035.955 508.134)" fill="none" stroke="#d7de3b" stroke-miterlimit="10" stroke-width="1.539"/>
        <line id="Line_14-2" data-name="Line 14" x2="9.849" transform="translate(1035.955 511.212)" fill="none" stroke="#d7de3b" stroke-miterlimit="10" stroke-width="1.539"/>
        <line id="Line_15-2" data-name="Line 15" x2="7.387" transform="translate(1035.955 514.29)" fill="none" stroke="#d7de3b" stroke-miterlimit="10" stroke-width="1.539"/>
      </g>
    </g>
    <g id="Group_5" data-name="Group 5">
      <g id="Stacks">
        <path id="Path_5" data-name="Path 5" d="M1015.441,482.712H995.274V469.36a3.006,3.006,0,0,1,3.006-3.006h20.167v13.352A3.006,3.006,0,0,1,1015.441,482.712Z" fill="none" stroke="#fff" stroke-miterlimit="10" stroke-width="1.539"/>
      </g>
      <circle id="Ellipse_3" data-name="Ellipse 3" cx="3.055" cy="3.055" r="3.055" transform="translate(1001.346 473.673)" fill="none" stroke="#fff" stroke-miterlimit="10" stroke-width="1.539"/>
      <rect id="Rectangle_6" data-name="Rectangle 6" width="5.492" height="5.492" transform="translate(1007.457 470.565)" fill="none" stroke="#fff" stroke-miterlimit="10" stroke-width="1.539"/>
    </g>
    <rect id="Rectangle_7" data-name="Rectangle 7" width="160.916" height="32.484" transform="translate(986.122 421.208)"/>
    <g id="Group_6" data-name="Group 6">
      <path id="Path_77-3" data-name="Path 77" d="M1132.079,443.148h-2.524l-2.882,2.884-2.883-2.884h-2.524a2.882,2.882,0,0,1-2.882-2.883h0V429.454h16.578v10.811a2.881,2.881,0,0,1-2.881,2.883Z" fill="none" stroke="#5d5d5d" stroke-miterlimit="10" stroke-width="1.539"/>
      <g id="Group_43-3" data-name="Group 43">
        <line id="Line_13-3" data-name="Line 13" x2="9.849" transform="translate(1121.811 432.818)" fill="none" stroke="#5d5d5d" stroke-miterlimit="10" stroke-width="1.539"/>
        <line id="Line_14-3" data-name="Line 14" x2="9.849" transform="translate(1121.811 435.896)" fill="none" stroke="#5d5d5d" stroke-miterlimit="10" stroke-width="1.539"/>
        <line id="Line_15-3" data-name="Line 15" x2="7.387" transform="translate(1121.811 438.974)" fill="none" stroke="#5d5d5d" stroke-miterlimit="10" stroke-width="1.539"/>
      </g>
    </g>
    <g id="Group_7" data-name="Group 7">
      <g id="Stacks-2" data-name="Stacks">
        <path id="Path_6" data-name="Path 6" d="M1015.441,444.907H995.274V431.556a3.006,3.006,0,0,1,3.006-3.006h20.167V441.9A3.006,3.006,0,0,1,1015.441,444.907Z" fill="none" stroke="#fff" stroke-miterlimit="10" stroke-width="1.539"/>
      </g>
      <circle id="Ellipse_4" data-name="Ellipse 4" cx="3.055" cy="3.055" r="3.055" transform="translate(1001.346 435.868)" fill="none" stroke="#fff" stroke-miterlimit="10" stroke-width="1.539"/>
      <rect id="Rectangle_8" data-name="Rectangle 8" width="5.492" height="5.492" transform="translate(1007.457 432.76)" fill="none" stroke="#fff" stroke-miterlimit="10" stroke-width="1.539"/>
    </g>
    <g id="Group_8" data-name="Group 8">
      <g id="Stacks-3" data-name="Stacks">
        <path id="Path_7" data-name="Path 7" d="M1016.211,520.257H996.044V506.9a3.006,3.006,0,0,1,3.006-3.006h20.167v13.352A3.006,3.006,0,0,1,1016.211,520.257Z" fill="none" stroke="#fff" stroke-miterlimit="10" stroke-width="1.539"/>
      </g>
      <circle id="Ellipse_5" data-name="Ellipse 5" cx="3.055" cy="3.055" r="3.055" transform="translate(1002.116 511.218)" fill="none" stroke="#fff" stroke-miterlimit="10" stroke-width="1.539"/>
      <rect id="Rectangle_9" data-name="Rectangle 9" width="5.492" height="5.492" transform="translate(1008.227 508.11)" fill="none" stroke="#fff" stroke-miterlimit="10" stroke-width="1.539"/>
    </g>
    <line id="Line_1" data-name="Line 1" x2="77.668" transform="translate(1059.818 519.51)" fill="none" stroke="#5d5d5d" stroke-miterlimit="10" stroke-width="1.539"/>
  </g>
</svg>
