<svg xmlns="http://www.w3.org/2000/svg" width="114.228" height="90.152" viewBox="0 0 114.228 90.152">
  <g id="step_1" data-name="step 1" transform="translate(-485.923 -426.207)">
    <path id="Path_1" data-name="Path 1" d="M558.9,514.618H487.664V467.455a10.618,10.618,0,0,1,10.618-10.617H569.52V504A10.617,10.617,0,0,1,558.9,514.618Z" fill="none" stroke="#000" stroke-miterlimit="10" stroke-width="3.482"/>
    <path id="Path_2" data-name="Path 2" d="M502.109,456.838v-4.815a9.63,9.63,0,0,1,9.63-9.63h72.226v48.15a9.63,9.63,0,0,1-9.63,9.63H569.52" fill="none" stroke="#000" stroke-miterlimit="10" stroke-width="3.482"/>
    <path id="Path_3" data-name="Path 3" d="M516.554,442.393v-4.815a9.63,9.63,0,0,1,9.63-9.63H598.41V476.1a9.63,9.63,0,0,1-9.63,9.63h-4.815" fill="none" stroke="#000" stroke-miterlimit="10" stroke-width="3.482"/>
    <circle id="Ellipse_1" data-name="Ellipse 1" cx="10.792" cy="10.792" r="10.792" transform="translate(509.112 482.69)" fill="none" stroke="#000" stroke-miterlimit="10" stroke-width="3.482"/>
    <rect id="Rectangle_1" data-name="Rectangle 1" width="19.4" height="19.4" transform="translate(530.697 471.711)" fill="none" stroke="#000" stroke-miterlimit="10" stroke-width="3.482"/>
  </g>
</svg>
